<?xml version="1.0" encoding="utf-8"?>
<svg id="master-artboard" viewBox="0 0 692.7456665039062 245.71688842773438" version="1.1" xmlns="http://www.w3.org/2000/svg" x="0px" y="0px" style="enable-background:new 0 0 1400 980;" width="692.7456665039062px" height="245.71688842773438px" xmlns:xlink="http://www.w3.org/1999/xlink"><defs><style id="ee-google-fonts">@import url(https://fonts.googleapis.com/css?family=Anton:400|Roboto+Slab:100,300,400,700);</style><path id="text-path-0" d="M 778.8464965820312 213.4612274169922 A 100 18 0 0 1 988.3533935546875 213.4612274169922 A 100 18 0 0 1 778.8464965820312 213.4612274169922 Z" style="fill: none; stroke: red; stroke-width: 2;"/><path id="text-path-1" d="M 664.5464477539062 37.96122741699219 A 100 19 0 0 1 876.5812377929688 37.96122741699219 A 100 19 0 0 1 664.5464477539062 37.96122741699219" style="fill: none; stroke: red; stroke-width: 2;"/><path id="text-path-2" d="M 765.3650512695312 211.70851135253906 A 100 17 0 0 1 991.5017700195312 211.70851135253906 A 100 17 0 0 1 765.3650512695312 211.70851135253906" style="fill: none; stroke: red; stroke-width: 2;"/><path id="path-1" d="M 765.3650512695312 211.70851135253906 A 100 17 0 0 1 991.5017700195312 211.70851135253906 A 100 17 0 0 1 765.3650512695312 211.70851135253906" style="fill: none; stroke: red; stroke-width: 2;"/></defs><rect id="ee-background" x="0" y="0" width="692.7456665039062" height="245.71688842773438" style="fill: white; fill-opacity: 0; pointer-events: none;"/>


<g transform="matrix(1.2760417461395264, 0, 0, 1.2760417461395264, -306.96044921875, -364.8891539793008)"><metadata id="metadata65339">
    
  </metadata><linearGradient spreadMethod="pad" y2="30%" x2="-10%" y1="120%" x1="30%" id="3d_gradient2-logo-c302cf36-827e-4501-ae20-4b5db9494f78">
    <stop id="stop65314" stop-opacity="1" stop-color="#ffffff" offset="0%"/>
    <stop id="stop65316" stop-opacity="1" stop-color="#000000" offset="100%"/>
  </linearGradient><linearGradient gradientTransform="rotate(-30)" spreadMethod="pad" y2="30%" x2="-10%" y1="120%" x1="30%" id="3d_gradient3-logo-c302cf36-827e-4501-ae20-4b5db9494f78">
    <stop id="stop65319" stop-opacity="1" stop-color="#ffffff" offset="0%"/>
    <stop id="stop65321" stop-opacity="1" stop-color="#cccccc" offset="50%"/>
    <stop id="stop65323" stop-opacity="1" stop-color="#000000" offset="100%"/>
  </linearGradient><g id="logo-group">
    <image id="container" x="272" y="144" width="480" height="480" style="display: none;" transform="translate(0 0)" xlink:href=""/>
    <g id="logo-center" transform="translate(-18.61842575500009 0)">
      <image id="icon_container" x="0" y="0" style="display: none;" xlink:href=""/>
      <g id="slogan" style="font-style:oblique;font-weight:normal;font-size:32px;line-height:1;font-family:Lora;font-variant-ligatures:none;text-align:center;text-anchor:middle" transform="translate(0 0)"/>
      <g id="title" style="font-style:normal;font-weight:normal;font-size:72px;line-height:1;font-family:'Brandmark Script 4';font-variant-ligatures:normal;text-align:center;text-anchor:middle" transform="translate(0 0)">
        <path id="path65342" style="font-style:normal;font-weight:normal;font-size:72px;line-height:1;font-family:'Brandmark Script 4';font-variant-ligatures:normal;text-align:center;text-anchor:middle" d="m 376.74969,-60.768 c -1.296,-0.936 -3.024,-0.648 -3.96,0.648 -0.504,0.576 -46.296,60.984 -78.408,60.984 -2.952,0 -3.528,-0.936 -3.744,-1.296 -2.952,-4.752 5.76,-22.32 12.816,-36.432 10.224,-20.52 20.808,-41.688 14.256,-52.2 -2.52,-4.104 -7.2,-6.192 -13.896,-6.192 -13.68,0 -28.296,4.824 -41.04,13.464 -12.168,8.208 -21.168,19.08 -24.768,29.736 -4.176,12.384 -0.864,23.472 9.36,31.176 1.296,1.008 3.168,0.72 4.104,-0.576 1.008,-1.296 0.72,-3.096 -0.576,-4.104 -10.296,-7.776 -9.72,-17.712 -7.344,-24.624 6.192,-18.576 32.472,-39.24 60.264,-39.24 4.608,0 7.56,1.152 8.928,3.384 4.824,7.776 -5.904,29.304 -14.472,46.584 -9.648,19.296 -17.28,34.56 -12.6,42.12 1.728,2.664 4.608,4.032 8.712,4.032 20.664,0 45.216,-21.168 62.28,-39.096 -8.712,16.128 -17.136,34.344 -15.48,41.616 0.288,1.296 1.512,2.232 2.808,2.232 0.216,0 0.432,0 0.648,-0.072 1.584,-0.36 2.592,-1.944 2.232,-3.528 -1.872,-8.064 17.856,-43.92 30.744,-64.728 0.792,-1.296 0.432,-3.024 -0.864,-3.888 z" stroke-width="0" stroke-linejoin="miter" stroke-miterlimit="2" fill="#9a96d7" stroke="#9a96d7" transform="translate(0 236.10080635) translate(264.59675380500005 63.335589999999996) scale(0.89) translate(-236.2463 95.256)"/>
        <path id="path65344" style="font-style:normal;font-weight:normal;font-size:72px;line-height:1;font-family:'Brandmark Script 4';font-variant-ligatures:normal;text-align:center;text-anchor:middle" d="m 449.42581,-20.304 c -0.936,-1.296 -2.808,-1.584 -4.104,-0.576 -9.36,6.984 -26.352,18 -32.112,18 -1.08,0 -1.584,-0.576 -1.8,-6.192 -0.216,-4.608 -0.504,-12.384 -8.352,-12.384 -7.992,0 -17.28,7.56 -22.824,12.096 -0.648,0.576 -1.368,1.152 -2.016,1.656 0.504,-3.312 4.824,-11.304 7.56,-14.184 1.08,-1.152 1.08,-3.024 -0.144,-4.104 -1.152,-1.152 -3.024,-1.08 -4.104,0.072 -2.088,2.232 -11.304,15.336 -8.64,21.528 0.864,2.016 2.736,3.168 5.184,3.168 1.512,0 2.592,-0.936 5.904,-3.6 4.608,-3.816 13.176,-10.8 19.08,-10.8 1.584,0 2.232,0.576 2.52,6.84 0.144,4.392 0.432,11.736 7.632,11.736 1.584,0 6.408,0 21.816,-9.72 7.344,-4.68 13.536,-9.288 13.824,-9.432 1.296,-1.008 1.512,-2.808 0.576,-4.104 z" stroke-width="0" stroke-linejoin="miter" stroke-miterlimit="2" fill="#a598d8" stroke="#a598d8" transform="translate(0 236.10080635) translate(385.782936305 124.24287973) scale(0.89) translate(-372.41055 26.820843)"/>
        <path id="path65346" style="font-style:normal;font-weight:normal;font-size:72px;line-height:1;font-family:'Brandmark Script 4';font-variant-ligatures:normal;text-align:center;text-anchor:middle" d="m 509.66169,-20.232 c -0.936,-1.296 -2.736,-1.656 -4.032,-0.72 -0.216,0.144 -21.096,14.472 -42.984,14.472 -4.104,0 -7.272,-0.792 -9.144,-2.232 -1.296,-1.008 -1.944,-2.448 -1.944,-4.248 0,-4.608 4.032,-9.288 6.336,-9.288 1.08,0 1.656,0.36 2.16,1.368 0.432,1.08 0.432,2.232 0.432,2.232 0,1.656 1.296,2.952 2.88,3.024 1.656,0 2.952,-1.296 2.952,-2.88 0,-0.504 0,-4.536 -2.664,-7.272 -1.512,-1.512 -3.456,-2.304 -5.76,-2.304 -5.904,0 -12.168,7.776 -12.168,15.12 0,3.6 1.44,6.696 4.176,8.856 2.952,2.304 7.2,3.456 12.744,3.456 23.688,0 45.36,-14.904 46.296,-15.552 1.296,-0.864 1.656,-2.736 0.72,-4.032 z" stroke-width="0" stroke-linejoin="miter" stroke-miterlimit="2" fill="#af9ad8" stroke="#af9ad8" transform="translate(0 236.10080635) translate(451.03341090500004 123.12223) scale(0.89) translate(-445.72569 28.08)"/>
        <path id="path65348" style="font-style:normal;font-weight:normal;font-size:72px;line-height:1;font-family:'Brandmark Script 4';font-variant-ligatures:normal;text-align:center;text-anchor:middle" d="m 518.15319,-40.824 c 0.504,0.288 1.008,0.432 1.512,0.432 1.008,0 1.944,-0.504 2.52,-1.368 1.872,-3.168 6.552,-6.696 9.36,-8.856 l 0.792,-0.576 c 1.296,-1.008 1.512,-2.808 0.504,-4.104 -0.936,-1.296 -2.808,-1.512 -4.104,-0.504 l -0.72,0.504 c -3.096,2.448 -8.352,6.408 -10.872,10.512 -0.792,1.368 -0.36,3.168 1.008,3.96 z m 48.816,20.808 c -0.792,-1.44 -2.592,-1.872 -3.96,-1.08 -17.784,10.368 -45.576,19.08 -53.568,19.08 -1.224,0 -1.44,-0.504 -1.584,-0.792 -1.368,-2.736 1.152,-10.512 3.888,-13.968 1.008,-1.224 0.792,-3.024 -0.504,-4.032 -1.224,-1.008 -3.096,-0.864 -4.104,0.432 -3.096,3.888 -7.416,14.184 -4.608,20.088 1.296,2.664 3.744,4.104 6.912,4.104 9.72,0 38.88,-9.648 56.52,-19.872 1.368,-0.792 1.872,-2.592 1.008,-3.96 z" stroke-width="0" stroke-linejoin="miter" stroke-miterlimit="2" fill="#ba9cd9" stroke="#ba9cd9" transform="translate(0 236.10080635) translate(500.7803614050001 97.88803686) scale(0.89) translate(-501.62114 56.433026)"/>
        <path id="path65350" style="font-style:normal;font-weight:normal;font-size:72px;line-height:1;font-family:'Brandmark Script 4';font-variant-ligatures:normal;text-align:center;text-anchor:middle" d="m 636.87894,-20.304 c -0.936,-1.296 -2.808,-1.584 -4.104,-0.576 -9.36,6.984 -26.352,18 -32.112,18 -1.08,0 -1.584,-0.576 -1.8,-6.192 -0.216,-4.608 -0.504,-12.384 -8.352,-12.384 -7.992,0 -17.28,7.56 -22.824,12.096 -0.648,0.576 -1.368,1.152 -2.016,1.656 0.504,-3.312 4.824,-11.304 7.56,-14.184 1.08,-1.152 1.08,-3.024 -0.144,-4.104 -1.152,-1.152 -3.024,-1.08 -4.104,0.072 -2.088,2.232 -11.304,15.336 -8.64,21.528 0.864,2.016 2.736,3.168 5.184,3.168 1.512,0 2.592,-0.936 5.904,-3.6 4.608,-3.816 13.176,-10.8 19.08,-10.8 1.584,0 2.232,0.576 2.52,6.84 0.144,4.392 0.432,11.736 7.632,11.736 1.584,0 6.408,0 21.816,-9.72 7.344,-4.68 13.536,-9.288 13.824,-9.432 1.296,-1.008 1.512,-2.808 0.576,-4.104 z" stroke-width="0" stroke-linejoin="miter" stroke-miterlimit="2" fill="#c59eda" stroke="#c59eda" transform="translate(0 236.10080635) translate(552.6162220050002 124.24287973) scale(0.89) translate(-559.86368 26.820843)"/>
        <path id="path65352" style="font-style:normal;font-weight:normal;font-size:72px;line-height:1;font-family:'Brandmark Script 4';font-variant-ligatures:normal;text-align:center;text-anchor:middle" d="m 701.21881,-20.16 c -0.864,-1.368 -2.664,-1.728 -4.032,-0.864 -0.216,0.216 -24.264,15.984 -49.896,15.984 -3.096,0 -5.544,-0.648 -6.912,-1.944 -1.08,-1.008 -1.656,-2.52 -1.656,-4.464 0,-0.288 0,-0.576 0,-0.864 l 0.288,0.072 c 7.416,1.944 13.392,-1.368 16.416,-5.112 2.88,-3.456 3.744,-7.632 2.304,-10.656 -1.152,-2.52 -3.744,-3.96 -7.056,-3.96 -9.432,0 -17.784,11.448 -17.784,20.52 0,3.6 1.224,6.624 3.528,8.712 2.52,2.376 6.192,3.528 10.872,3.528 27.432,0 52.128,-16.272 53.136,-16.92 1.368,-0.936 1.728,-2.736 0.792,-4.032 z m -50.544,-5.976 c 0.432,0 1.512,0.072 1.8,0.576 0.36,0.72 0.072,2.592 -1.512,4.536 -0.936,1.08 -4.464,4.68 -10.512,3.168 h -0.072 c 2.304,-4.536 6.552,-8.28 10.296,-8.28 z" stroke-width="0" stroke-linejoin="miter" stroke-miterlimit="2" fill="#cf9fda" stroke="#cf9fda" transform="translate(0 236.10080635) translate(617.610367705 119.66190999999999) scale(0.89) translate(-632.89081 31.968)"/>
        <path id="path65354" style="font-style:normal;font-weight:normal;font-size:72px;line-height:1;font-family:'Brandmark Script 4';font-variant-ligatures:normal;text-align:center;text-anchor:middle" d="m 810.62844,-69.624 c -19.728,-1.296 -47.448,-1.584 -75.24,-1.296 5.832,-9.144 11.304,-16.848 15.912,-22.392 1.008,-1.296 0.864,-3.096 -0.36,-4.104 -1.296,-1.08 -3.096,-0.864 -4.104,0.36 -5.328,6.408 -11.664,15.48 -18.504,26.28 -34.488,0.504 -68.256,2.016 -86.184,3.672 -1.584,0.144 -2.808,1.584 -2.592,3.168 0.144,1.512 1.368,2.664 2.88,2.664 h 0.288 c 16.776,-1.584 48.744,-3.024 81.936,-3.6 -35.424,57.384 -82.44,153.288 -84.816,158.328 -0.72,1.44 -0.144,3.168 1.296,3.888 0.432,0.216 0.864,0.288 1.296,0.288 1.08,0 2.088,-0.576 2.592,-1.656 0.648,-1.224 50.832,-103.68 86.544,-160.92 29.16,-0.432 58.464,-0.216 78.696,1.152 1.584,0.072 3.024,-1.152 3.096,-2.736 0.144,-1.584 -1.08,-3.024 -2.736,-3.096 z" stroke-width="0" stroke-linejoin="miter" stroke-miterlimit="2" fill="#daa1db" stroke="#daa1db" transform="translate(0 236.10080635) translate(623.520724205 60.7924773) scale(0.89) translate(-639.53166 98.11343)"/>
        <path id="path65356" style="font-style:normal;font-weight:normal;font-size:72px;line-height:1;font-family:'Brandmark Script 4';font-variant-ligatures:normal;text-align:center;text-anchor:middle" d="m 831.30031,-69.624 c -19.728,-1.296 -47.448,-1.584 -75.24,-1.296 5.832,-9.144 11.304,-16.848 15.912,-22.392 1.008,-1.296 0.864,-3.096 -0.36,-4.104 -1.296,-1.08 -3.096,-0.864 -4.104,0.36 -5.328,6.408 -11.664,15.48 -18.504,26.28 -34.488,0.504 -68.256,2.016 -86.184,3.672 -1.584,0.144 -2.808,1.584 -2.592,3.168 0.144,1.512 1.368,2.664 2.88,2.664 h 0.288 c 16.776,-1.584 48.744,-3.024 81.936,-3.6 -35.424,57.384 -82.44,153.288 -84.816,158.328 -0.72,1.44 -0.144,3.168 1.296,3.888 0.432,0.216 0.864,0.288 1.296,0.288 1.08,0 2.088,-0.576 2.592,-1.656 0.648,-1.224 50.832,-103.68 86.544,-160.92 29.16,-0.432 58.464,-0.216 78.696,1.152 1.584,0.072 3.024,-1.152 3.096,-2.736 0.144,-1.584 -1.08,-3.024 -2.736,-3.096 z" stroke-width="0" stroke-linejoin="miter" stroke-miterlimit="2" fill="#e4a3db" stroke="#e4a3db" transform="translate(0 236.10080635) translate(641.918688505 60.7924773) scale(0.89) translate(-660.20353 98.11343)"/>
        <path id="path65358" style="font-style:normal;font-weight:normal;font-size:72px;line-height:1;font-family:'Brandmark Script 4';font-variant-ligatures:normal;text-align:center;text-anchor:middle" d="m 791.81394,-20.016 c -0.792,-1.44 -2.592,-1.872 -3.96,-1.08 -7.56,4.464 -16.704,7.056 -26.64,7.56 0.792,-2.16 1.296,-4.248 1.296,-6.264 0,-2.592 -0.864,-4.752 -2.376,-6.336 -1.656,-1.656 -4.032,-2.52 -7.056,-2.52 -3.672,0 -5.832,1.368 -7.056,2.592 -1.296,1.224 -2.088,2.808 -2.376,4.68 h -0.216 c -7.776,2.304 -11.016,10.08 -10.152,16.2 0.72,4.968 3.96,8.136 8.208,8.136 6.192,0 12.456,-4.68 16.56,-10.512 12.168,-0.144 23.544,-3.096 32.76,-8.496 1.368,-0.792 1.8,-2.592 1.008,-3.96 z m -36.936,6.336 c -3.744,-0.936 -5.544,-4.032 -5.544,-6.192 0,-0.576 0.144,-1.44 0.792,-2.016 0.576,-0.648 1.656,-0.936 2.952,-0.936 1.008,0 2.232,0.144 2.88,0.792 0.576,0.576 0.72,1.512 0.72,2.232 0,1.728 -0.72,3.888 -1.8,6.12 z m -13.392,10.8 c -1.8,0 -2.304,-2.16 -2.448,-3.168 -0.36,-2.808 0.792,-7.776 5.4,-9.504 1.224,2.88 3.672,5.472 7.056,6.912 -2.88,3.24 -6.48,5.76 -10.008,5.76 z" stroke-width="0" stroke-linejoin="miter" stroke-miterlimit="2" fill="#efa5dc" stroke="#efa5dc" transform="translate(0 236.10080635) translate(706.8339446049999 122.60959) scale(0.89) translate(-733.14202 28.656)"/>
      </g>
      <image id="icon" x="0" y="0" style="display: none;" xlink:href=""/>
    </g>
  </g></g></svg>